<svg width="24" height="24" viewBox="0 0 24 24" fill="none" xmlns="http://www.w3.org/2000/svg">
<path d="M19.7933 2.81104C22.0488 4.58096 23.4912 7.22256 24 10.0586C24 10.2446 24 10.4307 24 10.6224C23.2058 10.6224 22.4117 10.6224 21.5935 10.6224C21.5419 10.4169 21.4904 10.2115 21.4373 9.99985C20.9054 7.95458 20.0147 5.90114 18.1514 4.76422C16.3348 3.7136 14.3805 3.40555 12.3482 3.94781C11.1053 4.33168 10.1067 4.9975 9.19081 5.92405C9.13413 5.9794 9.07746 6.03476 9.01907 6.09179C7.97587 7.1945 7.58075 8.61626 7.15455 10.0586C9.47588 10.0896 11.7972 10.1206 14.1889 10.1525C14.1889 11.0518 14.1889 11.9511 14.1889 12.8776C11.8981 12.9086 9.60731 12.9396 7.2471 12.9715C8.05744 14.6169 8.78413 15.7369 10.4942 16.3745C12.0482 16.799 13.4544 16.6321 14.8769 15.8555C15.9282 15.2026 16.4707 14.2646 16.9656 13.1595C17.0572 12.9734 17.0572 12.9734 17.1507 12.7836C17.9754 12.7836 18.8001 12.7836 19.6498 12.7836C19.4315 14.0022 19.4315 14.0022 19.187 14.5514C19.1453 14.6461 19.1453 14.6461 19.1027 14.7428C18.2261 16.6467 16.7259 17.9735 14.8368 18.7975C14.1773 19.0298 13.5013 19.2373 12.8005 19.2673C12.7011 19.2722 12.6018 19.277 12.4994 19.282C10.287 19.3382 8.35269 18.606 6.72611 17.0551C5.03761 15.2787 4.42089 13.0891 4.45087 10.6686C4.5149 8.35656 5.42787 6.11943 6.96943 4.42058C7.01583 4.369 7.06223 4.31741 7.11003 4.26426C10.4018 0.642612 15.8024 -0.161056 19.7933 2.81104Z" fill="#6445C2"/>
<path d="M10.3942 0.00382612C10.2366 0.32384 9.86322 0.389453 9.54966 0.520643C6.8477 1.69704 4.58341 3.96124 3.45752 6.72978C2.41968 9.40988 2.24349 12.5056 3.35159 15.1989C4.36935 17.5482 6.19542 19.3897 8.54997 20.3693C10.9448 21.3053 13.5926 21.3475 15.9582 20.2885C17.8082 19.4211 19.2038 18.0589 20.2053 16.2601C20.271 16.1443 20.271 16.1443 20.338 16.0262C20.8241 15.1115 21.1147 14.0611 21.2827 13.0391C21.316 12.8773 21.316 12.8773 21.4086 12.7833C21.5936 12.7751 21.779 12.7732 21.9643 12.7741C22.0767 12.7744 22.1892 12.7747 22.305 12.775C22.4234 12.7758 22.5419 12.7766 22.6639 12.7774C22.7826 12.7778 22.9014 12.7783 23.0238 12.7787C23.3184 12.7798 23.613 12.7814 23.9076 12.7833C23.7236 15.4181 22.6259 17.8347 20.9458 19.8308C20.8489 19.948 20.8489 19.948 20.7502 20.0675C18.8915 22.2495 16.1647 23.6211 13.3561 23.9653C9.82098 24.1955 6.72313 23.2897 4.0078 20.9584C1.82233 19.0024 0.400985 16.3865 0.0278428 13.4411C-0.166929 9.83131 0.646632 6.76164 3.04174 4.0209C3.17807 3.87157 3.31494 3.72276 3.45246 3.57456C3.50794 3.51218 3.56342 3.44979 3.62058 3.38552C5.16702 1.71381 8.07385 -0.0943292 10.3942 0.00382612Z" fill="#6445C2"/>
<path d="M17.7063 5.98136C18.9045 6.9747 19.63 8.28349 19.9624 9.8105C19.9624 9.96555 19.9624 10.1206 19.9624 10.2803C19.0766 10.2803 18.1909 10.2803 17.2783 10.2803C17.2114 10.0497 17.1446 9.81908 17.0758 9.58146C16.6931 8.32323 16.0548 7.25461 14.9162 6.5503C13.9232 6.02 12.9155 5.82988 11.8174 5.67597C11.8174 5.61396 11.8174 5.55194 11.8174 5.48804C13.7115 4.53119 15.9969 4.6998 17.7063 5.98136Z" fill="#6445C2"/>
</svg>
