<svg width="1080" height="249" viewBox="0 0 1080 249" fill="none" xmlns="http://www.w3.org/2000/svg">
<g clip-path="url(#clip0_212_83)">
<path d="M1001.93 249.485C983.601 249.485 968.213 246.203 955.767 239.641C943.548 232.852 934.27 222.556 927.934 208.752C921.598 194.949 918.429 177.411 918.429 156.14C918.429 134.643 921.598 117.105 927.934 103.528C934.27 89.7243 943.661 79.5413 956.107 72.9789C968.553 66.1902 984.053 62.7959 1002.61 62.7959C1019.58 62.7959 1033.72 66.0771 1045.04 72.6395C1056.58 78.9756 1065.29 88.706 1071.17 101.831C1077.06 114.956 1080 131.475 1080 151.388V164.965H954.749C955.201 177.638 957.125 188.273 960.519 196.872C963.914 205.245 969.005 211.468 975.794 215.541C982.809 219.388 991.634 221.312 1002.27 221.312C1008.83 221.312 1014.72 220.519 1019.92 218.935C1025.12 217.125 1029.54 214.636 1033.16 211.468C1036.78 208.074 1039.61 204.114 1041.64 199.588C1043.68 194.836 1044.7 189.518 1044.7 183.634H1079.32C1079.32 194.27 1077.51 203.661 1073.89 211.807C1070.27 219.954 1064.95 226.856 1057.94 232.513C1051.15 237.944 1043 242.13 1033.5 245.072C1023.99 248.014 1013.47 249.485 1001.93 249.485ZM955.428 139.169H1043C1043 130.343 1041.98 122.989 1039.95 117.105C1038.14 110.996 1035.42 106.017 1031.8 102.17C1028.18 98.3233 1023.88 95.6078 1018.9 94.0238C1013.92 92.2135 1008.27 91.3083 1001.93 91.3083C992.426 91.3083 984.28 93.0055 977.491 96.3999C970.929 99.7942 965.837 105.112 962.216 112.353C958.596 119.368 956.333 128.307 955.428 139.169Z" fill="#7130E6"/>
<path d="M824.088 245.411V66.8691H853.279L856.334 95.721H858.371C860.407 90.0637 863.01 84.746 866.178 79.7676C869.572 74.7892 873.872 70.716 879.076 67.548C884.507 64.3799 891.07 62.7959 898.764 62.7959C902.384 62.7959 905.552 63.1353 908.268 63.8142C911.209 64.4931 913.472 65.0588 915.056 65.5114V98.7759H903.176C895.935 98.7759 889.486 99.9073 883.828 102.17C878.397 104.433 873.759 107.827 869.912 112.353C866.291 116.653 863.575 121.971 861.765 128.307C860.181 134.643 859.389 141.771 859.389 149.691V245.411H824.088Z" fill="#7130E6"/>
<path d="M523.549 249.484C511.782 249.484 501.146 247.108 491.642 242.356C482.138 237.604 474.331 230.476 468.221 220.971H465.845L462.79 245.411H433.938V0H469.239V88.5922H471.276C475.123 82.7087 479.648 77.8435 484.853 73.9966C490.284 70.1497 496.394 67.3211 503.183 65.5107C509.971 63.7004 517.326 62.7953 525.246 62.7953C538.823 62.7953 550.816 66.0765 561.226 72.6389C571.635 79.2012 579.668 89.2711 585.326 102.848C591.209 116.426 594.151 133.963 594.151 155.461C594.151 177.411 591.322 195.288 585.665 209.091C580.008 222.895 571.861 233.078 561.226 239.64C550.816 246.203 538.257 249.484 523.549 249.484ZM513.705 218.935C523.888 218.935 532.148 216.898 538.484 212.825C545.046 208.752 549.911 202.416 553.079 193.817C556.247 184.991 557.831 173.564 557.831 159.534V153.424C557.831 139.394 556.247 127.967 553.079 119.141C550.138 110.316 545.385 103.867 538.823 99.7936C532.261 95.4941 523.662 93.3443 513.026 93.3443C506.464 93.3443 500.467 94.4758 495.036 96.7387C489.605 99.0015 484.966 102.622 481.119 107.601C477.272 112.353 474.331 118.576 472.294 126.269C470.257 133.963 469.239 143.241 469.239 154.103V158.855C469.239 171.754 470.71 182.729 473.652 191.78C476.82 200.605 481.685 207.394 488.247 212.146C494.81 216.672 503.296 218.935 513.705 218.935Z" fill="#7130E6"/>
<path d="M302.643 249.485C296.986 249.485 290.876 248.806 284.314 247.448C277.751 246.09 271.528 243.601 265.645 239.98C259.988 236.36 255.349 231.381 251.728 225.045C248.108 218.483 246.297 209.997 246.297 199.588C246.297 187.368 249.126 177.298 254.783 169.378C260.44 161.458 268.36 155.235 278.543 150.709C288.726 146.183 300.833 143.015 314.863 141.205C329.119 139.395 344.62 138.49 361.365 138.49V120.839C361.365 114.956 360.347 109.751 358.31 105.225C356.5 100.699 352.993 97.1919 347.788 94.7027C342.81 92.2135 335.568 90.9689 326.064 90.9689C316.56 90.9689 309.093 92.2135 303.662 94.7027C298.457 96.9656 294.723 99.9073 292.46 103.528C290.424 106.922 289.405 110.656 289.405 114.729V119.821H255.462C255.236 118.689 255.123 117.558 255.123 116.426C255.123 115.295 255.123 113.937 255.123 112.353C255.123 101.718 258.064 92.7792 263.948 85.538C270.058 78.0704 278.543 72.4132 289.405 68.5663C300.267 64.7194 312.826 62.7959 327.083 62.7959C342.47 62.7959 355.255 65.0588 365.439 69.5846C375.848 73.8841 383.655 80.107 388.859 88.2534C394.064 96.3999 396.666 106.243 396.666 117.784V208.413C396.666 212.713 397.685 215.767 399.721 217.578C401.984 219.388 404.587 220.293 407.528 220.293H419.748V244.054C417.032 245.185 413.638 246.316 409.565 247.448C405.492 248.579 400.74 249.145 395.309 249.145C389.199 249.145 383.994 248.014 379.695 245.751C375.622 243.714 372.227 240.772 369.512 236.925C367.023 232.852 365.325 228.326 364.42 223.348H362.384C358.31 228.553 353.332 233.192 347.449 237.265C341.791 241.112 335.229 244.054 327.761 246.09C320.294 248.353 311.921 249.485 302.643 249.485ZM312.487 220.293C319.502 220.293 325.951 219.275 331.835 217.238C337.944 214.975 343.149 211.921 347.449 208.074C351.748 204 355.142 199.248 357.632 193.817C360.121 188.16 361.365 182.05 361.365 175.488V163.608C345.751 163.608 332.061 164.513 320.294 166.323C308.527 168.134 299.362 171.528 292.8 176.506C286.237 181.258 282.956 187.934 282.956 196.533C282.956 201.737 284.088 206.15 286.35 209.771C288.613 213.165 292.008 215.767 296.533 217.578C301.059 219.388 306.377 220.293 312.487 220.293Z" fill="#7130E6"/>
<path d="M186.801 245.411V0H222.102V245.411H186.801Z" fill="#7130E6"/>
<path d="M83.0323 249.485C64.7029 249.485 49.3152 246.203 36.8693 239.641C24.6497 232.852 15.3718 222.556 9.0357 208.752C2.6996 194.949 -0.468445 177.411 -0.468445 156.14C-0.468445 134.643 2.6996 117.105 9.0357 103.528C15.3718 89.7243 24.7628 79.5413 37.2087 72.9789C49.6546 66.1902 65.1554 62.7959 83.7112 62.7959C100.683 62.7959 114.826 66.0771 126.14 72.6395C137.681 78.9756 146.393 88.706 152.277 101.831C158.16 114.956 161.102 131.475 161.102 151.388V164.965H35.851C36.3036 177.638 38.227 188.273 41.6214 196.872C45.0157 205.245 50.1072 211.468 56.8959 215.541C63.9108 219.388 72.7361 221.312 83.3717 221.312C89.9341 221.312 95.8176 220.519 101.022 218.935C106.227 217.125 110.64 214.636 114.26 211.468C117.881 208.074 120.709 204.114 122.746 199.588C124.783 194.836 125.801 189.518 125.801 183.634H160.423C160.423 194.27 158.613 203.661 154.992 211.807C151.372 219.954 146.054 226.856 139.039 232.513C132.25 237.944 124.104 242.13 114.6 245.072C105.095 248.014 94.573 249.485 83.0323 249.485ZM36.5298 139.169H124.104C124.104 130.343 123.085 122.989 121.049 117.105C119.239 110.996 116.523 106.017 112.902 102.17C109.282 98.3233 104.982 95.6078 100.004 94.0238C95.0256 92.2135 89.3684 91.3083 83.0323 91.3083C73.5281 91.3083 65.3817 93.0055 58.593 96.3999C52.0307 99.7942 46.9392 105.112 43.3185 112.353C39.6979 119.368 37.435 128.307 36.5298 139.169Z" fill="#7130E6"/>
<path d="M773.98 76.0956C792.983 90.2614 805.134 111.404 809.421 134.103C809.421 135.592 809.421 137.081 809.421 138.615C802.73 138.615 796.04 138.615 789.146 138.615C788.712 136.971 788.278 135.327 787.83 133.633C783.35 117.263 775.846 100.828 760.147 91.7282C744.843 83.3194 728.378 80.8539 711.257 85.194C700.785 88.2663 692.372 93.5953 684.656 101.011C684.178 101.454 683.701 101.897 683.209 102.354C674.42 111.179 671.091 122.559 667.501 134.103C687.057 134.351 706.614 134.599 726.764 134.855C726.764 142.052 726.764 149.249 726.764 156.665C707.464 156.913 688.165 157.161 668.28 157.417C675.107 170.586 681.23 179.55 695.637 184.653C708.729 188.051 720.576 186.715 732.56 180.499C741.417 175.273 745.988 167.766 750.157 158.921C750.929 157.432 750.929 157.432 751.717 155.913C758.665 155.913 765.613 155.913 772.771 155.913C770.932 165.666 770.932 165.666 768.872 170.061C768.521 170.82 768.521 170.82 768.162 171.594C760.777 186.832 748.138 197.451 732.222 204.046C726.666 205.905 720.971 207.566 715.067 207.806C714.23 207.845 713.393 207.884 712.53 207.924C693.891 208.374 677.595 202.513 663.891 190.1C649.666 175.883 644.47 158.358 644.722 138.985C645.262 120.48 652.954 102.575 665.941 88.9778C666.332 88.565 666.723 88.1521 667.126 87.7267C694.858 58.7402 740.357 52.3079 773.98 76.0956Z" fill="#7130E6"/>
<path d="M694.793 53.6312C693.465 56.1925 690.319 56.7176 687.678 57.7676C664.914 67.1831 645.838 85.3051 636.352 107.464C627.609 128.914 626.124 153.692 635.46 175.248C644.034 194.051 659.419 208.79 679.255 216.63C699.431 224.121 721.739 224.459 741.669 215.983C757.255 209.041 769.012 198.139 777.45 183.741C778.003 182.815 778.003 182.815 778.568 181.869C782.663 174.548 785.111 166.141 786.527 157.962C786.807 156.666 786.807 156.666 787.587 155.914C789.146 155.848 790.708 155.833 792.269 155.84C793.216 155.843 794.163 155.845 795.14 155.848C796.137 155.854 797.135 155.86 798.163 155.867C799.163 155.87 800.164 155.874 801.195 155.877C803.677 155.886 806.159 155.899 808.641 155.914C807.091 177.002 797.843 196.344 783.688 212.32C782.872 213.258 782.872 213.258 782.04 214.215C766.381 231.678 743.408 242.657 719.746 245.411C689.963 247.254 663.865 240.004 640.988 221.345C622.576 205.69 610.601 184.753 607.458 161.178C605.817 132.287 612.671 107.719 632.849 85.7826C633.998 84.5874 635.151 83.3963 636.31 82.2102C636.777 81.7109 637.244 81.2116 637.726 80.6972C650.754 67.3174 675.244 52.8456 694.793 53.6312Z" fill="#7130E6"/>
<path d="M756.397 101.476C766.492 109.426 772.604 119.902 775.404 132.123C775.404 133.364 775.404 134.605 775.404 135.884C767.942 135.884 760.479 135.884 752.791 135.884C752.228 134.038 751.665 132.192 751.085 130.29C747.861 120.22 742.484 111.667 732.891 106.03C724.524 101.785 716.036 100.264 706.784 99.0318C706.784 98.5354 706.784 98.0391 706.784 97.5277C722.742 89.8694 741.996 91.2189 756.397 101.476Z" fill="#7130E6"/>
</g>
<defs>
<clipPath id="clip0_212_83">
<rect width="1080" height="249" fill="white"/>
</clipPath>
</defs>
</svg>
