<svg width="40" height="40" viewBox="0 0 40 40" fill="none" xmlns="http://www.w3.org/2000/svg">
<g clip-path="url(#clip0_367_66)">
<path d="M20.1456 0C9.37584 0 0.613994 8.76185 0.613994 19.5315C0.613994 23.2103 1.63447 26.7703 3.57153 29.8686L0.400087 38.3436C0.231684 38.7938 0.341581 39.3009 0.681453 39.6407C0.91572 39.8749 1.22922 40 1.54898 40C1.69322 40 1.83869 39.9746 1.97863 39.9221L10.7314 36.6468C13.6043 38.2293 16.8462 39.0631 20.1455 39.0631C30.9153 39.0631 39.677 30.3012 39.677 19.5315C39.6772 8.76185 30.9154 0 20.1456 0ZM29.5572 25.6649C29.0117 27.6044 26.9729 29.0119 24.7093 29.0118C24.4879 29.0118 24.2643 28.998 24.0481 28.9712C21.2969 28.5756 18.077 26.688 15.4288 23.9153C12.64 21.2519 10.7524 18.0325 10.3791 15.3033C10.0014 12.5412 11.2373 10.4813 13.685 9.79299C13.8107 9.75767 13.9437 9.73976 14.0802 9.73976C15.514 9.73976 17.222 11.766 17.8152 13.2186C18.2016 14.1646 18.1723 14.8934 17.7306 15.3265C16.6223 16.4127 16.2092 17.0731 16.2569 17.682C16.3104 18.3607 16.9421 19.1448 18.0152 20.2698C18.152 20.4135 18.3353 20.6049 18.5411 20.8115C18.7333 21.003 18.9175 21.1795 19.0804 21.3353C20.2784 22.4777 21.0606 23.0968 21.7634 23.0968C22.3479 23.0967 22.9815 22.6825 24.0233 21.6195C24.1812 21.4585 24.4722 21.2668 24.9626 21.2668C26.2556 21.2668 28.0803 22.5287 28.9734 23.7073C29.5146 24.4213 29.7164 25.0984 29.5572 25.6649Z" fill="white"/>
</g>
<defs>
<clipPath id="clip0_367_66">
<rect width="40" height="40" fill="white"/>
</clipPath>
</defs>
</svg>
